<?xml version="1.0" encoding="utf-8"?>
<!-- Generator: Adobe Illustrator 21.0.2, SVG Export Plug-In . SVG Version: 6.00 Build 0)  -->
<svg version="1.1" id="Layer_1" xmlns="http://www.w3.org/2000/svg" xmlns:xlink="http://www.w3.org/1999/xlink" x="0px" y="0px"
	 viewBox="0 0 906 316.5" style="enable-background:new 0 0 906 316.5;" xml:space="preserve">
<style type="text/css">
	.st0{fill:#1104CE;}
	.st1{fill:url(#SVGID_1_);}
	.st2{fill:#FFFFFF;}
	.st3{fill:#171B2D;}
	.st4{fill:#1174A7;}
	.st5{fill:#96588A;}
	.st6{fill:none;}
</style>
<g>
	<g>
		<polygon class="st0" points="0,82 28,82 28,28 82,28 82,0 0,0 		"/>
		<polygon class="st0" points="257.9,40.8 232.7,40.8 232.7,30.6 254.6,30.6 254.6,21.3 232.7,21.3 232.7,11.2 257.1,11.2 
			257.1,1.5 221.8,1.5 221.8,50.4 257.9,50.4 		"/>
		<polygon class="st0" points="363.1,40.8 338,40.8 338,30.6 359.9,30.6 359.9,21.3 338,21.3 338,11.2 362.4,11.2 362.4,1.5 
			327.1,1.5 327.1,50.4 363.1,50.4 		"/>
		<path class="st0" d="M156.4,155.5c2.1-0.9,3.6-1.6,4.4-2c0.8-0.4,2.3-1.4,4.4-3.1c6.2-4.7,9.3-11.9,9.3-21.5
			c0-8-2.8-15.1-8.3-21.5c-3.1-3.4-7.6-6.1-13.6-8.1c-6-2-13.2-3-21.6-3H83.1v123H137c16.9,0,28.7-3.8,35.6-11.4
			c5.9-6.6,8.8-14.1,8.8-22.7c0-7.7-2.3-14.2-6.8-19.4C170.1,160.6,164,157.2,156.4,155.5z M110.6,119.6h13.2
			c8.1,0,13.8,0.9,17.2,2.6c3.4,1.8,5.1,5.4,5.1,10.8c0,5.5-1.8,9-5.5,10.6c-3.7,1.6-9.4,2.5-17,2.5h-13V119.6z M147.1,193.3
			c-3.9,1.9-9.8,2.9-17.7,2.9h-18.8v-28.3h16.2c9.2,0,15.8,0.9,20,2.7c4.2,1.8,6.2,5.6,6.2,11.3C153,187.5,151,191.3,147.1,193.3z"
			/>
		<polygon class="st0" points="28,234 0,234 0,316 82,316 82,288 28,288 		"/>
		<polygon class="st0" points="128.7,50.4 139.6,50.4 139.6,10.9 153.5,10.9 153.5,1.5 114.8,1.5 114.8,10.9 128.7,10.9 		"/>
		<polygon class="st0" points="387.3,19.6 400.4,46.4 406.9,46.4 420.2,19.6 420.2,50.4 431.1,50.4 431.1,1.5 416.4,1.5 403.7,28.4 
			391.1,1.5 376.4,1.5 376.4,50.4 387.3,50.4 		"/>
		<polygon class="st0" points="878,288 824,288 824,316 906,316 906,234 878,234 		"/>
		<path class="st0" d="M684.4,96.4l-46.5,50.5V96.4h-27.5v123h27.5v-34.8l12.3-13.7l36.1,48.6h32c-5.6-7.9-14.1-19.8-25.5-35.8
			c-11.4-16-19.2-27-23.4-32.8l48.9-54.4H684.4z"/>
		<path class="st0" d="M820,158.5c-6.5-5.7-15.5-10.1-27.2-12.9c-11.7-2.9-19.1-5.4-22.4-7.5c-3.2-2.1-4.8-5-4.8-8.5
			c0-3.6,1.3-6.5,4-8.6c2.6-2.2,6.2-3.3,10.8-3.3c11.4,0,22.4,4,33.1,12.1l13.9-20.1c-6.1-5.2-13.3-9.2-21.5-12
			c-8.2-2.8-16.4-4.2-24.6-4.2c-12.6,0-23,3.2-31.4,9.5c-8.4,6.3-12.6,15.3-12.6,27c0,11.7,3.3,20.2,9.9,25.7
			c6.6,5.5,17.1,9.9,31.4,13.3c9,2.2,15.1,4.4,18.1,6.6c3,2.2,4.6,5.1,4.6,8.8c0,3.7-1.4,6.6-4.3,8.8c-2.9,2.2-6.8,3.3-11.9,3.3
			c-11.3,0-23.5-5.8-36.8-17.4L732,199.2c15.6,14.4,33.1,21.6,52.6,21.6c13.5,0,24.4-3.4,32.6-10.3c8.3-6.9,12.4-15.8,12.4-26.8
			C829.7,172.7,826.5,164.3,820,158.5z"/>
		<polygon class="st0" points="824,0 824,28 878,28 878,82 906,82 906,0 		"/>
		<path class="st0" d="M504.7,129.9c7.3-6.7,16.2-10.1,26.5-10.1c12.9,0,23.7,5.4,32.4,16.2l17.1-19.4
			c-13.6-15.4-30.5-23.1-50.7-23.1c-18.1,0-33.4,6.1-45.8,18.3c-12.5,12.2-18.7,27.4-18.7,45.7c0,18.2,6.1,33.4,18.4,45.3
			c12.3,12,27.9,18,46.8,18c18.9,0,35.4-7.9,49.4-23.6l-17.6-18.1c-8.6,10.7-19.6,16-33.1,16c-9.9,0-18.2-3.5-25.2-10.4
			c-6.9-6.9-10.4-16.1-10.4-27.5C493.7,145.8,497.4,136.7,504.7,129.9z"/>
		<polygon class="st0" points="195.3,21.9 175.9,21.9 175.9,1.5 165,1.5 165,50.4 175.9,50.4 175.9,31.2 195.3,31.2 195.3,50.4 
			206.3,50.4 206.3,1.5 195.3,1.5 		"/>
		<polygon class="st0" points="240.7,96.4 213.2,96.4 213.2,219.4 293.1,219.4 293.1,195 240.7,195 		"/>
		<path class="st0" d="M313.8,42.9V25.5h-11v13.4c-2.5,1.4-5.7,2.2-9.5,2.2c-3.8,0-7-1.4-9.8-4.2c-2.7-2.8-4.1-6.5-4.1-11.1
			c0-4.6,1.4-8.3,4.3-11.2c2.8-2.8,6.3-4.2,10.5-4.2c2.1,0,4.1,0.4,6,1.1c1.8,0.7,3.9,2,6.1,4l5.7-8.2c-5.2-4.6-11.3-6.9-18.3-6.9
			c-7,0-13,2.4-18,7.3c-5,4.9-7.5,10.9-7.5,18.2c0,7.3,2.4,13.3,7.3,18c4.9,4.8,10.9,7.1,18.1,7.1C302.3,51,309,48.3,313.8,42.9z"/>
		<path class="st0" d="M376.2,93.6c-18.2,0-33.5,6.1-45.9,18.2c-12.4,12.1-18.7,27.3-18.7,45.3c0,18.1,6.2,33.2,18.7,45.3
			c12.4,12.1,27.7,18.2,45.9,18.2c18.2,0,33.5-6.1,45.9-18.2c12.4-12.1,18.7-27.2,18.7-45.3c0-18.1-6.2-33.2-18.7-45.3
			C409.7,99.7,394.4,93.6,376.2,93.6z M402.2,185.2c-7,7.7-15.7,11.5-26,11.5c-10.3,0-18.9-3.8-26-11.5c-7-7.7-10.6-17-10.6-28
			c0-11,3.5-20.3,10.6-28.1c7-7.7,15.7-11.6,26-11.6c10.3,0,18.9,3.9,26,11.6c7,7.7,10.6,17.1,10.6,28.1
			C412.8,168.2,409.3,177.5,402.2,185.2z"/>
	</g>
	<g>
		<g id="XMLID_1_">
			<g>
				
					<linearGradient id="SVGID_1_" gradientUnits="userSpaceOnUse" x1="409.8311" y1="1284.6893" x2="438.7502" y2="1255.7704" gradientTransform="matrix(1 0 0 1 0 -968.72)">
					<stop  offset="0" style="stop-color:#4A2970"/>
					<stop  offset="1" style="stop-color:#F61B55"/>
				</linearGradient>
				<path class="st1" d="M439.1,288v27c0,0.8-0.7,1.5-1.5,1.5H411c-0.8,0-1.5-0.6-1.5-1.5v-27c0-0.8,0.7-1.5,1.5-1.5h26.6
					C438.4,286.5,439.1,287.2,439.1,288z M430.7,307.9v-2.6h-7.6v2.6H430.7z M430.7,302.8v-2.6h-7.6v2.6H430.7z M430.7,297.6v-2.5
					h-7.6v2.6h7.6V297.6z M420.5,307.9v-12.8H418V308h2.5V307.9z"/>
				<rect x="423" y="305.4" class="st2" width="7.6" height="2.6"/>
				<rect x="423" y="300.2" class="st2" width="7.6" height="2.6"/>
				<rect x="423" y="295.1" class="st2" width="7.6" height="2.6"/>
				<rect x="418" y="295.1" class="st2" width="2.5" height="12.9"/>
			</g>
		</g>
		<rect x="456" y="296.4" class="st3" width="2" height="9.8"/>
		<polygon class="st3" points="449.4,302.5 453.5,302.5 453.5,300.7 449.4,300.7 449.4,298.8 453.9,298.8 453.9,297 447.3,297 
			447.3,306.2 454.1,306.2 454.1,304.4 449.4,304.4 		"/>
		<path class="st3" d="M501.8,304.6c-0.2,0-0.4-0.1-0.5-0.2c-0.1-0.2-0.2-0.4-0.2-0.6v-3.3h1.7v-1.4h-1.7V297h-2v2.1h-0.8v1.4h0.8
			v3.3c0,0.8,0.2,1.4,0.7,1.8s1,0.7,1.7,0.7s1.3-0.3,1.9-0.8l-0.7-1.4C502.4,304.4,502.1,304.6,501.8,304.6z"/>
		<path class="st3" d="M510.7,300.1c-0.7-0.7-1.6-1.1-2.7-1.1s-2,0.4-2.7,1.1c-0.7,0.7-1.1,1.6-1.1,2.6s0.4,1.9,1.1,2.6
			c0.7,0.7,1.6,1.1,2.7,1.1s2-0.4,2.7-1.1c0.7-0.7,1.1-1.6,1.1-2.6C511.8,301.6,511.4,300.8,510.7,300.1z M509.3,304.1
			c-0.3,0.4-0.7,0.5-1.3,0.5s-0.9-0.2-1.3-0.5c-0.3-0.4-0.5-0.8-0.5-1.4c0-0.6,0.2-1.1,0.5-1.4c0.3-0.4,0.7-0.6,1.3-0.6
			s0.9,0.2,1.3,0.6c0.3,0.4,0.5,0.8,0.5,1.4C509.8,303.3,509.6,303.7,509.3,304.1z"/>
		<path class="st3" d="M494.1,299c-0.7,0-1.4,0.3-2,0.9v-0.8h-2v7.1h2v-4c0-0.6,0.1-1,0.4-1.3c0.3-0.3,0.6-0.4,1-0.4
			c0.8,0,1.2,0.5,1.2,1.6v4h2v-4.3c0-0.9-0.3-1.6-0.8-2.1C495.5,299.3,494.8,299,494.1,299z"/>
		<path class="st3" d="M488.4,302.3c0-1-0.3-1.8-1-2.4c-0.7-0.6-1.5-0.9-2.5-0.9s-1.8,0.3-2.5,1c-0.7,0.7-1.1,1.6-1.1,2.7
			c0,1.1,0.3,2,1,2.7c0.7,0.7,1.6,1,2.6,1c1.1,0,2-0.4,2.8-1.1l-1.1-1.2c-0.4,0.5-1,0.7-1.7,0.7c-0.4,0-0.8-0.1-1.2-0.4
			c-0.3-0.2-0.5-0.6-0.6-1h5.1v-1.1C488.2,302.3,488.4,302.3,488.4,302.3z M483.3,302c0.1-0.4,0.2-0.7,0.6-1
			c0.3-0.2,0.7-0.4,1.1-0.4s0.7,0.1,1,0.3c0.3,0.2,0.4,0.6,0.5,1L483.3,302L483.3,302z"/>
		<path class="st3" d="M466.8,302.3c0-1-0.3-1.8-1-2.4c-0.7-0.6-1.5-0.9-2.5-0.9s-1.8,0.3-2.5,1c-0.7,0.7-1.1,1.6-1.1,2.7
			c0,1.1,0.3,2,1,2.7c0.7,0.7,1.6,1,2.6,1c1.1,0,2-0.4,2.8-1.1l-1.1-1.2c-0.4,0.5-1,0.7-1.7,0.7c-0.4,0-0.8-0.1-1.2-0.4
			c-0.3-0.2-0.5-0.6-0.6-1h5.1v-1.1C466.6,302.3,466.8,302.3,466.8,302.3z M461.8,302c0.1-0.4,0.2-0.7,0.6-1
			c0.3-0.2,0.7-0.4,1.1-0.4s0.7,0.1,1,0.3c0.3,0.2,0.4,0.6,0.5,1L461.8,302L461.8,302z"/>
		<path class="st3" d="M476.9,299c-0.5,0-0.9,0.1-1.4,0.4c-0.5,0.2-0.8,0.6-1.1,1c-0.2-0.4-0.5-0.7-0.8-1c-0.4-0.3-0.8-0.4-1.2-0.4
			c-0.7,0-1.3,0.3-1.9,0.9v-0.8h-2v7.1h2v-3.8c0-0.6,0.1-1,0.4-1.3c0.3-0.3,0.6-0.4,1-0.4s0.7,0.1,0.8,0.4c0.2,0.3,0.3,0.7,0.3,1.2
			v3.9h2v-3.8c0-0.6,0.1-1,0.4-1.3c0.3-0.3,0.6-0.4,1-0.4c0.8,0,1.2,0.5,1.2,1.6v3.9h2v-4.3c0-0.9-0.3-1.7-0.8-2.2
			C478.4,299.2,477.7,299,476.9,299z"/>
		<path class="st3" d="M517.6,299c-0.4,0-0.8,0.1-1.2,0.3c-0.4,0.2-0.7,0.4-0.9,0.7v-0.9h-2v7.1h2v-3.1c0-0.7,0.1-1.2,0.4-1.7
			c0.3-0.4,0.7-0.6,1.3-0.6h0.4V299z"/>
	</g>
	<g>
		<g>
			<g>
				<path class="st3" d="M590.5,303.3l-1.6-5.3h-2.1l-1.6,5.3l-1.8-5.3h-2.2l3.2,9.2h1.5l2-6.4l2,6.4h1.5l3.2-9.2h-2.2L590.5,303.3z
					 M599.2,298H596v9.2h2v-2.6h1.2c1.4,0,2.4-0.3,3-0.8c0.7-0.5,1-1.4,1-2.5c0-1.1-0.3-2-1-2.5C601.6,298.3,600.6,298,599.2,298z
					 M600.8,302.4c-0.2,0.3-0.7,0.4-1.4,0.4H598v-3.1h1.2c0.7,0,1.2,0.1,1.5,0.3s0.5,0.6,0.5,1.1C601.1,301.8,601,302.2,600.8,302.4
					z M610.6,302.4c0.2-0.1,0.3-0.1,0.3-0.2c0.1,0,0.2-0.1,0.3-0.2c0.5-0.4,0.7-0.9,0.7-1.6c0-0.6-0.2-1.1-0.6-1.6
					c-0.2-0.3-0.6-0.5-1-0.6c-0.4-0.1-1-0.2-1.6-0.2h-3.6v9.2h4c1.3,0,2.1-0.3,2.6-0.9c0.4-0.5,0.7-1.1,0.7-1.7s-0.2-1.1-0.5-1.5
					C611.6,302.8,611.1,302.6,610.6,302.4z M607.2,299.7h1c0.6,0,1,0.1,1.3,0.2s0.4,0.4,0.4,0.8c0,0.4-0.1,0.7-0.4,0.8
					s-0.7,0.2-1.3,0.2h-1V299.7z M609.9,305.3c-0.3,0.1-0.7,0.2-1.3,0.2h-1.4v-2.1h1.2c0.7,0,1.2,0.1,1.5,0.2
					c0.3,0.1,0.5,0.4,0.5,0.8C610.3,304.8,610.2,305.1,609.9,305.3z M617.3,300c-1.2,0-2.2,0.3-3.2,1l0.9,1.3c0.3-0.2,0.6-0.4,1-0.5
					c0.4-0.1,0.7-0.2,1.1-0.2c0.8,0,1.2,0.4,1.2,1.1l0,0h-1.5c-0.9,0-1.6,0.2-2.1,0.5c-0.5,0.4-0.8,0.9-0.8,1.6
					c0,0.7,0.3,1.3,0.8,1.7s1.1,0.7,1.9,0.7c0.7,0,1.4-0.3,1.9-1v0.9h1.8v-4.5c0-0.9-0.3-1.6-0.8-2C618.9,300.2,618.2,300,617.3,300
					z M618.3,304.5c0,0.4-0.1,0.6-0.4,0.9c-0.3,0.2-0.6,0.3-0.9,0.3s-0.6-0.1-0.8-0.2s-0.3-0.3-0.3-0.6c0-0.5,0.4-0.7,1.2-0.7h1.2
					V304.5L618.3,304.5z M629,300.1h-2.5l-2.2,2.4v-5h-2v9.8h2v-2l0.6-0.7l1.8,2.7h2.3l-2.8-4.2L629,300.1z M633.7,300
					c-1,0-1.8,0.3-2.5,1s-1.1,1.6-1.1,2.7c0,1.1,0.3,2,1,2.7c0.7,0.7,1.6,1,2.6,1c1.1,0,2-0.4,2.8-1.1l-1-1.3
					c-0.4,0.5-1,0.7-1.7,0.7c-0.4,0-0.8-0.1-1.2-0.4c-0.3-0.2-0.5-0.6-0.6-1h5.1v-1.1c0-1-0.3-1.8-1-2.4
					C635.4,300.3,634.6,300,633.7,300z M632.1,303c0.1-0.4,0.2-0.7,0.6-1c0.3-0.2,0.7-0.4,1.1-0.4c0.4,0,0.7,0.1,1,0.3
					c0.3,0.2,0.4,0.6,0.5,1L632.1,303L632.1,303z M641.8,300.3c-0.4,0.2-0.7,0.4-0.9,0.7v-0.9h-2v7.1h2v-3.1c0-0.7,0.1-1.2,0.4-1.7
					c0.3-0.4,0.7-0.6,1.3-0.6h0.4v-1.9C642.5,300,642.2,300.1,641.8,300.3z M649.2,300.1l-1.7,4.4l-1.7-4.4h-2.1
					c1.8,4.6,2.7,7,2.7,7.2c0,0.2-0.1,0.4-0.2,0.6c-0.1,0.2-0.3,0.3-0.5,0.3c-0.3,0-0.7-0.2-1-0.5l-0.9,1.5c0.6,0.6,1.3,0.8,1.9,0.8
					c0.5,0,0.9-0.1,1.4-0.4c0.4-0.3,0.7-0.6,0.9-1.1l3.3-8.4H649.2z"/>
			</g>
		</g>
		<path class="st4" d="M564.1,315.3c-0.8-0.1-1.4-0.6-2.1-0.8c-0.9-0.3-1.8-0.3-2.8-0.5c-0.5,0-0.9,0-1.4,0c-2.3,0-3.9,0.7-6.1,0.5
			c-0.8-1.1-1.5-0.9-1.8-2.6h0.1v-0.1c1.6-0.1,6.7-2.2,7.4-3.2l-1.2-0.1c-0.4,0.4-1.5,0.5-2.1,0.7c-3,1.2-6.1,1.7-8.9,0.3
			c-0.7-0.4-1.4-0.6-2-1c-2.8-2-6-6.8-4.3-12.1c0.6-1.5,1.3-2.8,2.2-3.9c2.2-2.9,8.3-5.3,13.1-3.2c2.3,1,3.8,3.6,5.6,4.9
			c1,0.8,5.6,3.7,7.4,2.3c-1.4,0-3-1.9-3.5-2.7c0.9-0.2,0.3-0.3,1.1-0.4c0.6-0.1,1.5,0,1.9,0.1c0.6,0.1,1.1,0,1.7,0.2
			c2.2,0.7,3.9,1.9,5,3.7c0.3,0.6,0.6,1.4,0.8,2c0.4,1.4,0.1,3.3-0.3,4.4c-1.2,3.2-3.8,5.5-8.2,5.5c0,0.1,0,0.1,0,0.2
			c-0.4,0.6-0.4,1.5-0.6,2.2C564.8,312.7,564.3,314,564.1,315.3z"/>
	</g>
	<g>
		<g>
			<g id="XMLID_2_">
				<g>
					<path class="st5" d="M710.1,312.3c-4.1,0-8.3,0-12.4,0c0.5,1.4,1.1,2.7,1.7,4.1c-2.5-1.4-4.9-2.8-7.4-4.1c-5.4,0-10.9,0-16.3,0
						c-2-0.1-3.7-1.8-3.7-3.8c0-4.3,0-8.5,0-12.8c0-0.6,0-1.2,0.3-1.8c0.6-1.4,2-2.4,3.5-2.4c11.3,0,22.6,0,34,0c1,0,2,0.3,2.7,1
						c0.8,0.7,1.3,1.9,1.3,3c0,4.3,0,8.7,0,13C713.7,310.5,712,312.2,710.1,312.3z"/>
				</g>
			</g>
		</g>
		<g>
			<g>
				<path class="st3" d="M726.3,299.8c1,0,1.8,0.4,2.4,1.2l1.3-1.5c-1-1.2-2.3-1.7-3.8-1.7c-1.3,0-2.5,0.5-3.4,1.4
					c-0.9,0.9-1.4,2.1-1.4,3.4c0,1.4,0.5,2.5,1.4,3.4s2.1,1.3,3.5,1.3s2.6-0.6,3.7-1.8l-1.3-1.4c-0.6,0.8-1.5,1.2-2.5,1.2
					c-0.7,0-1.4-0.3-1.9-0.8s-0.8-1.2-0.8-2.1s0.3-1.5,0.8-2C724.9,300,725.6,299.8,726.3,299.8z M734.7,300c-1.1,0-2,0.4-2.7,1.1
					c-0.7,0.7-1.1,1.6-1.1,2.6s0.4,1.9,1.1,2.6c0.7,0.7,1.6,1.1,2.7,1.1s2-0.4,2.7-1.1c0.7-0.7,1.1-1.6,1.1-2.6s-0.4-1.9-1.1-2.6
					C736.7,300.4,735.8,300,734.7,300z M736,305.1c-0.3,0.4-0.7,0.5-1.3,0.5c-0.6,0-0.9-0.2-1.3-0.5c-0.3-0.4-0.5-0.8-0.5-1.4
					c0-0.6,0.2-1.1,0.5-1.4c0.3-0.4,0.7-0.6,1.3-0.6c0.6,0,0.9,0.2,1.3,0.6c0.3,0.4,0.5,0.8,0.5,1.4
					C736.5,304.3,736.3,304.8,736,305.1z M748.5,300c-0.5,0-0.9,0.1-1.4,0.4c-0.5,0.2-0.8,0.6-1.1,1c-0.2-0.4-0.5-0.7-0.8-1
					c-0.4-0.3-0.8-0.4-1.2-0.4c-0.7,0-1.3,0.3-1.9,0.9v-0.8h-2v7.1h2v-3.8c0-0.6,0.1-1,0.4-1.3c0.3-0.3,0.6-0.4,1-0.4
					s0.7,0.1,0.8,0.4c0.2,0.3,0.3,0.7,0.3,1.2v3.9h2v-3.8c0-0.6,0.1-1,0.4-1.3c0.3-0.3,0.6-0.4,1-0.4c0.8,0,1.2,0.5,1.2,1.6v3.9h2
					v-4.3c0-0.9-0.3-1.7-0.8-2.2C750,300.3,749.4,300,748.5,300z M761.7,300c-0.5,0-0.9,0.1-1.4,0.4c-0.5,0.2-0.8,0.6-1.1,1
					c-0.2-0.4-0.5-0.7-0.8-1c-0.4-0.3-0.8-0.4-1.2-0.4c-0.7,0-1.3,0.3-1.9,0.9v-0.8h-2v7.1h2v-3.8c0-0.6,0.1-1,0.4-1.3
					c0.3-0.3,0.6-0.4,1-0.4s0.7,0.1,0.8,0.4c0.1,0.3,0.3,0.7,0.3,1.2v3.9h2v-3.8c0-0.6,0.1-1,0.4-1.3c0.3-0.3,0.6-0.4,1-0.4
					c0.8,0,1.2,0.5,1.2,1.6v3.9h2v-4.3c0-0.9-0.3-1.7-0.8-2.2C763.2,300.3,762.5,300,761.7,300z M769.8,300c-1,0-1.8,0.3-2.5,1
					s-1.1,1.6-1.1,2.7c0,1.1,0.3,2,1,2.7c0.7,0.7,1.6,1,2.6,1c1.1,0,2-0.4,2.8-1.1l-1.1-1.2c-0.4,0.5-1,0.7-1.7,0.7
					c-0.4,0-0.8-0.1-1.2-0.4c-0.3-0.2-0.5-0.6-0.6-1h5.1v-1.1c0-1-0.3-1.8-1-2.4C771.5,300.3,770.7,300,769.8,300z M768.2,303
					c0.1-0.4,0.2-0.7,0.6-1c0.3-0.2,0.7-0.4,1.1-0.4s0.7,0.1,1,0.3c0.3,0.2,0.4,0.6,0.5,1L768.2,303L768.2,303z M777.9,300.3
					c-0.4,0.2-0.7,0.4-0.9,0.7v-0.9h-2v7.1h2v-3.1c0-0.7,0.1-1.2,0.4-1.7c0.3-0.4,0.7-0.6,1.3-0.6h0.4v-1.9
					C778.6,300,778.3,300.1,777.9,300.3z M784,305.6c-0.5,0-0.9-0.2-1.3-0.5c-0.4-0.3-0.6-0.8-0.6-1.4c0-0.6,0.2-1.1,0.6-1.4
					c0.4-0.3,0.8-0.5,1.3-0.5c0.3,0,0.6,0.1,1,0.2c0.3,0.2,0.6,0.4,0.8,0.6l1-1.3c-0.4-0.4-0.8-0.7-1.4-0.9c-0.5-0.2-1-0.3-1.5-0.3
					c-1,0-1.9,0.3-2.6,1c-0.7,0.7-1.1,1.6-1.1,2.7c0,1.1,0.4,2,1.1,2.6c0.7,0.7,1.6,1,2.7,1s2-0.5,2.9-1.4l-1.2-1.3
					C785.3,305.3,784.7,305.6,784,305.6z M795.3,303.3c0-1-0.3-1.8-1-2.4s-1.5-0.9-2.5-0.9s-1.8,0.3-2.5,1s-1.1,1.6-1.1,2.7
					c0,1.1,0.3,2,1,2.7c0.7,0.7,1.6,1,2.6,1c1.1,0,2-0.4,2.8-1.1l-1.1-1.2c-0.4,0.5-1,0.7-1.7,0.7c-0.4,0-0.8-0.1-1.2-0.4
					c-0.3-0.2-0.5-0.6-0.6-1h5.1v-1.1C795.1,303.3,795.3,303.3,795.3,303.3z M790.2,303c0.1-0.4,0.2-0.7,0.6-1
					c0.3-0.2,0.7-0.4,1.1-0.4s0.7,0.1,1,0.3c0.3,0.2,0.4,0.6,0.5,1L790.2,303L790.2,303z"/>
			</g>
		</g>
		<g>
			<path class="st6" d="M705.7,298.9c-0.6,0.2-1,0.8-1.3,1.4c-0.7,1.3-0.9,2.9-0.2,4.2c0.2,0.4,0.5,0.7,0.9,0.8
				c0.5,0,0.9-0.3,1.2-0.6c0.7-0.7,1-1.7,1.1-2.7c0.1-0.9,0-1.9-0.6-2.7C706.5,298.9,706.1,298.7,705.7,298.9z"/>
			<path class="st6" d="M696.1,298.9c-0.6,0.2-0.9,0.7-1.2,1.2c-0.8,1.3-1,2.9-0.4,4.3c0.2,0.4,0.4,0.7,0.8,0.8
				c0.4,0.1,0.9-0.2,1.2-0.5c0.7-0.6,1.1-1.5,1.2-2.4c0.2-1,0.1-2.2-0.5-3C696.9,298.9,696.5,298.7,696.1,298.9z"/>
			<path class="st2" d="M691.7,296.4c0.2-0.4,0.2-0.9-0.1-1.2c-0.4-0.7-1.5-0.9-2.1-0.3c-0.3,0.4-0.5,0.9-0.7,1.4
				c-0.9,2.4-1.3,4.9-1.5,7.4c-0.7-1.7-1.1-3.4-1.4-5.2c-0.1-0.4-0.2-0.8-0.5-1.1c-0.3-0.4-0.9-0.4-1.3-0.1
				c-0.3,0.2-0.5,0.5-0.7,0.8c-1.1,2.1-2.2,4.3-3.3,6.4c-0.6-2.7-1.1-5.4-1.5-8.1c-0.1-0.4-0.1-0.7-0.4-1c-0.4-0.3-1-0.3-1.5-0.1
				c-0.6,0.2-0.8,0.9-0.7,1.5c0.6,3.5,1.1,7,2.1,10.4c0.3,0.7,0.4,1.6,1,2.1c0.4,0.3,0.9,0,1.3-0.3c0.7-0.7,1.2-1.7,1.7-2.6
				c0.7-1.4,1.4-2.7,2-4.1c0.7,2.3,1.6,4.7,3.3,6.5c0.4,0.4,0.9,0.8,1.5,0.7c0.6-0.1,0.9-0.8,0.9-1.4c-0.1-2.3,0.2-4.5,0.5-6.7
				C690.6,299.7,690.9,297.9,691.7,296.4z"/>
			<path class="st2" d="M709.9,300.3c-0.1-1.1-0.5-2.1-1.2-2.9c-0.8-0.9-2.1-1.2-3.3-1.1c-0.8,0.1-1.6,0.5-2.1,1.1
				c-1.9,2-2.6,5.1-1.8,7.8c0.3,0.9,0.8,1.7,1.6,2.2c1.2,0.7,2.8,0.8,3.9,0.1c0.9-0.5,1.5-1.4,2-2.3
				C709.8,303.6,710.1,301.9,709.9,300.3z M707.3,301.9c-0.1,1-0.4,2-1.1,2.7c-0.3,0.3-0.7,0.6-1.2,0.6c-0.4,0-0.7-0.4-0.9-0.8
				c-0.6-1.3-0.5-2.9,0.2-4.2c0.3-0.5,0.7-1.2,1.3-1.4c0.4-0.1,0.9,0,1.1,0.4C707.3,300,707.5,301,707.3,301.9z"/>
			<path class="st2" d="M699.1,297.4c-0.8-0.9-2.1-1.3-3.3-1.2c-0.7,0.1-1.4,0.4-2,0.9c-1.9,1.8-2.7,4.6-2.2,7.1
				c0.2,1.1,0.8,2.2,1.7,2.9c1.2,0.8,2.9,0.9,4.1,0.1c0.8-0.5,1.4-1.3,1.9-2.2c0.8-1.5,1.1-3.3,0.9-5
				C700.1,299.2,699.8,298.2,699.1,297.4z M697.7,302.3c-0.2,0.9-0.5,1.8-1.2,2.4c-0.3,0.3-0.7,0.5-1.2,0.5
				c-0.4-0.1-0.7-0.5-0.8-0.8c-0.6-1.4-0.4-3,0.4-4.3c0.3-0.5,0.7-1,1.2-1.2c0.4-0.1,0.9,0,1.1,0.4
				C697.8,300.1,697.9,301.2,697.7,302.3z"/>
		</g>
	</g>
</g>
</svg>
